<svg width="105" height="32" viewBox="0 0 105 32" fill="none" xmlns="http://www.w3.org/2000/svg">
<path d="M67.1832 26.191L75.7559 28.8982L82.975 21.6791L91.9989 27.9958L101.474 26.191L97.4132 13.1064L82.975 17.6183L74.8535 13.1064L66.2808 14.46L67.1832 26.191Z" fill="#F1A501"/>
<path d="M0.33432 21.7369V19.7859L5.85513 18.7897V21.4878C5.8828 22.9545 6.25639 24.0615 6.9759 24.8086C7.72307 25.5281 8.70547 25.8879 9.92309 25.8879C11.113 25.8879 12.0539 25.5005 12.7458 24.7256C13.4653 23.9508 13.825 22.913 13.825 21.6124V1.27255H19.5534V21.6124C19.5534 24.3244 18.654 26.6212 16.8552 28.503C15.0565 30.3848 12.7596 31.3257 9.9646 31.3257C7.05891 31.3257 4.72053 30.454 2.94944 28.7106C1.20603 26.9395 0.33432 24.6149 0.33432 21.7369Z" fill="black"/>
<path d="M20.8697 25.1407C20.8697 23.3973 21.437 21.9998 22.5716 20.9482C23.7062 19.8966 25.1729 19.2325 26.9716 18.9557L31.9943 18.2086C33.0182 18.0702 33.5302 17.5859 33.5302 16.7557C33.5302 15.9809 33.2258 15.3444 32.617 14.8463C32.0358 14.3482 31.1918 14.0991 30.0849 14.0991C28.9226 14.0991 27.9956 14.4173 27.3037 15.0538C26.6396 15.6903 26.266 16.479 26.183 17.4199L21.2848 16.3821C21.4785 14.611 22.3502 13.0475 23.8999 11.6915C25.4496 10.3355 27.4974 9.65754 30.0434 9.65754C33.0874 9.65754 35.329 10.3909 36.768 11.8576C38.207 13.2966 38.9265 15.1507 38.9265 17.4199V27.4653C38.9265 28.6829 39.0095 29.7621 39.1755 30.703H34.1113C33.973 30.0942 33.9038 29.2779 33.9038 28.254C32.6031 30.2741 30.5968 31.2842 27.8849 31.2842C25.7817 31.2842 24.0798 30.6754 22.7791 29.4577C21.5062 28.2401 20.8697 26.8011 20.8697 25.1407ZM29.0471 27.1747C30.3478 27.1747 31.4132 26.8149 32.2434 26.0954C33.1013 25.3483 33.5302 24.1306 33.5302 22.4426V21.5294L28.9226 22.235C27.2345 22.4841 26.3905 23.342 26.3905 24.8086C26.3905 25.4728 26.6257 26.0401 27.0962 26.5105C27.5666 26.9533 28.2169 27.1747 29.0471 27.1747Z" fill="black"/>
<path d="M60.5576 0.649902V27.0087C60.5576 28.3646 60.613 29.5961 60.7237 30.703H55.4519C55.3136 30.0112 55.2444 29.2225 55.2444 28.337C54.7739 29.1948 54.0268 29.8867 53.0029 30.4125C52.0066 30.9383 50.8443 31.2012 49.516 31.2012C46.6103 31.2012 44.2166 30.1911 42.3348 28.1709C40.4807 26.1231 39.5537 23.5495 39.5537 20.4501C39.5537 17.4337 40.4669 14.9016 42.2933 12.8538C44.1474 10.806 46.4996 9.78207 49.35 9.78207C52.2833 9.78207 54.2066 10.6261 55.1199 12.3142V0.649902H60.5576ZM45.116 20.4501C45.116 22.2489 45.5864 23.674 46.5273 24.7256C47.4682 25.7495 48.6858 26.2615 50.1802 26.2615C51.6469 26.2615 52.8507 25.7357 53.7915 24.6841C54.7324 23.6325 55.2029 22.2074 55.2029 20.4086C55.2029 18.6375 54.7324 17.2538 53.7915 16.2576C52.8507 15.2337 51.6469 14.7217 50.1802 14.7217C48.7135 14.7217 47.4959 15.2337 46.5273 16.2576C45.5864 17.2815 45.116 18.679 45.116 20.4501Z" fill="black"/>
<path d="M68.7052 24.7671C69.7292 25.791 70.9606 26.303 72.3996 26.303C73.8386 26.303 75.0562 25.791 76.0525 24.7671C77.0764 23.7432 77.5884 22.318 77.5884 20.4916C77.5884 18.6652 77.0764 17.24 76.0525 16.2161C75.0562 15.1922 73.8386 14.6802 72.3996 14.6802C70.9606 14.6802 69.7292 15.1922 68.7052 16.2161C67.709 17.24 67.2109 18.6652 67.2109 20.4916C67.2109 22.318 67.709 23.7432 68.7052 24.7671ZM64.7203 12.7293C66.7681 10.6814 69.3279 9.65754 72.3996 9.65754C75.4714 9.65754 78.0173 10.6814 80.0374 12.7293C82.0853 14.7771 83.1092 17.3645 83.1092 20.4916C83.1092 23.6187 82.0853 26.2061 80.0374 28.254C78.0173 30.3018 75.4714 31.3257 72.3996 31.3257C69.3279 31.3257 66.7681 30.3018 64.7203 28.254C62.7002 26.2061 61.6901 23.6187 61.6901 20.4916C61.6901 17.3645 62.7002 14.7771 64.7203 12.7293Z" fill="black"/>
<path d="M89.6256 24.7671C90.6495 25.791 91.8809 26.303 93.3199 26.303C94.7589 26.303 95.9766 25.791 96.9728 24.7671C97.9967 23.7432 98.5087 22.318 98.5087 20.4916C98.5087 18.6652 97.9967 17.24 96.9728 16.2161C95.9766 15.1922 94.7589 14.6802 93.3199 14.6802C91.8809 14.6802 90.6495 15.1922 89.6256 16.2161C88.6293 17.24 88.1312 18.6652 88.1312 20.4916C88.1312 22.318 88.6293 23.7432 89.6256 24.7671ZM85.6406 12.7293C87.6884 10.6814 90.2482 9.65754 93.3199 9.65754C96.3917 9.65754 98.9376 10.6814 100.958 12.7293C103.006 14.7771 104.029 17.3645 104.029 20.4916C104.029 23.6187 103.006 26.2061 100.958 28.254C98.9376 30.3018 96.3917 31.3257 93.3199 31.3257C90.2482 31.3257 87.6884 30.3018 85.6406 28.254C83.6205 26.2061 82.6104 23.6187 82.6104 20.4916C82.6104 17.3645 83.6205 14.7771 85.6406 12.7293Z" fill="black"/>
</svg>
